<svg width="60" height="60" viewBox="0 0 60 60" fill="none" xmlns="http://www.w3.org/2000/svg">
<path d="M52.5 5.625H7.5C4.3982 5.625 1.875 8.1482 1.875 11.25V38.4375C1.875 41.5393 4.3982 44.0625 7.5 44.0625H25.3125V46.875H23.4375C21.3693 46.875 19.6875 48.5568 19.6875 50.625C19.6875 52.6932 21.3693 54.375 23.4375 54.375H36.5625C38.6307 54.375 40.3125 52.6932 40.3125 50.625C40.3125 48.5568 38.6307 46.875 36.5625 46.875H34.6875V44.0625H52.5C55.6018 44.0625 58.125 41.5393 58.125 38.4375V11.25C58.125 8.1482 55.6018 5.625 52.5 5.625ZM7.5 7.5H52.5C54.5682 7.5 56.25 9.18183 56.25 11.25V36.5358C55.3953 37.6836 54.04 38.4375 52.5 38.4375H7.5C5.95997 38.4375 4.6047 37.6836 3.75 36.5358V11.25C3.75 9.18183 5.43183 7.5 7.5 7.5ZM36.5625 48.75C39.0304 48.8134 39.0381 52.4344 36.5624 52.5H23.4375C20.9685 52.4361 20.9629 48.8154 23.4376 48.75H25.7098C27.2742 52.4633 32.727 52.4614 34.2902 48.75H36.5625Z" fill="#196164"/>
<path d="M26.25 20.625H22.5C20.9467 20.625 19.6875 21.8842 19.6875 23.4375V33.75C19.6875 35.3033 20.9467 36.5625 22.5 36.5625H26.25C27.8033 36.5625 29.0625 35.3033 29.0625 33.75V23.4375C29.0625 21.8842 27.8033 20.625 26.25 20.625Z" fill="#196164"/>
<path d="M15 26.25H11.25C9.6967 26.25 8.4375 27.5092 8.4375 29.0625V33.75C8.4375 35.3033 9.6967 36.5625 11.25 36.5625H15C16.5533 36.5625 17.8125 35.3033 17.8125 33.75V29.0625C17.8125 27.5092 16.5533 26.25 15 26.25Z" fill="#196164"/>
<path d="M48.75 15.9375H45C43.4467 15.9375 42.1875 17.1967 42.1875 18.75V33.75C42.1875 35.3033 43.4467 36.5625 45 36.5625H48.75C50.3033 36.5625 51.5625 35.3033 51.5625 33.75V18.75C51.5625 17.1967 50.3033 15.9375 48.75 15.9375Z" fill="#196164"/>
<path d="M33.7499 36.5625H37.4999C41.2074 36.4657 41.2087 31.0344 37.4998 30.9375H33.7499C30.0423 31.0343 30.0411 36.4656 33.7499 36.5625Z" fill="#196164"/>
<path d="M48.4754 11.5246L46.6004 9.64964C45.7299 8.78647 44.4114 10.105 45.2748 10.9754C45.2747 10.9753 45.5494 11.25 45.5494 11.25H43.125C40.5405 11.25 38.4375 13.3529 38.4375 15.9375V23.4375C38.338 27.1458 32.9111 27.1466 32.8125 23.4374V20.625C32.8125 18.0404 30.7096 15.9375 28.125 15.9375H18.75C16.1655 15.9375 14.0625 18.0404 14.0625 20.625C14.0625 21.1423 13.6423 21.5625 13.125 21.5625H9.37505C8.15362 21.5785 8.13413 23.417 9.37509 23.4375C9.37505 23.4375 13.125 23.4375 13.125 23.4375C14.676 23.4375 15.9375 22.1759 15.9375 20.625C15.9375 19.0741 17.1991 17.8125 18.75 17.8125H28.125C29.676 17.8125 30.9375 19.0741 30.9375 20.625V23.4375C31.1553 29.6382 40.0932 29.6421 40.3125 23.4374V15.9375C40.3125 14.3866 41.5741 13.125 43.125 13.125H45.5494L45.2747 13.3996C44.4117 14.27 45.7298 15.5887 46.6004 14.7253C46.6004 14.7253 48.4754 12.8503 48.4754 12.8503C48.8416 12.4841 48.8416 11.8908 48.4754 11.5246Z" fill="#C4F500"/>
</svg>
