<svg width="60" height="60" viewBox="0 0 60 60" fill="none" xmlns="http://www.w3.org/2000/svg">
<path d="M47.8125 16.6812H12.1875C9.0857 16.6812 6.5625 19.2043 6.5625 22.3062V26.9937C6.5625 30.0955 9.0857 32.6187 12.1875 32.6187V30.7437C10.1193 30.7437 8.4375 29.0618 8.4375 26.9937V22.3062C8.4375 20.238 10.1193 18.5562 12.1875 18.5562H47.8125C49.8807 18.5562 51.5625 20.238 51.5625 22.3062V26.9937C51.5625 29.0618 49.8807 30.7437 47.8125 30.7437V32.6187C50.9143 32.6187 53.4375 30.0955 53.4375 26.9937V22.3062C53.4375 19.2043 50.9143 16.6812 47.8125 16.6812Z" fill="#196164"/>
<path d="M52.5 4.49365H7.5C4.3982 4.49365 1.875 7.01685 1.875 10.1187V40.1187C1.875 43.2205 4.3982 45.7437 7.5 45.7437H12.9029C12.6345 45.153 12.4371 44.5252 12.3195 43.8687H7.5C5.43183 43.8687 3.75 42.1868 3.75 40.1187V11.9937H56.25V40.1187C56.25 42.1868 54.5682 43.8687 52.5 43.8687H47.6805C47.5629 44.5252 47.3655 45.153 47.0971 45.7437H52.5C55.6018 45.7437 58.125 43.2205 58.125 40.1187V10.1187C58.125 7.01685 55.6018 4.49365 52.5 4.49365ZM6.5625 10.1187C5.33099 10.0948 5.33117 8.26734 6.56254 8.24365C7.79401 8.26752 7.79383 10.095 6.5625 10.1187ZM10.3125 10.1187C9.08099 10.0948 9.08117 8.26734 10.3125 8.24365C11.544 8.26752 11.5438 10.095 10.3125 10.1187ZM14.0625 10.1187C12.831 10.0948 12.8312 8.26734 14.0625 8.24365C15.294 8.26752 15.2938 10.095 14.0625 10.1187Z" fill="#196164"/>
<path d="M39.8438 24.1812H20.1562C16.7963 24.1812 14.0625 26.9149 14.0625 30.2749V42.4624C14.0625 45.8224 16.7963 48.5562 20.1562 48.5562H39.8438C43.2037 48.5562 45.9375 45.8224 45.9375 42.4624V30.2749C45.9375 26.9149 43.2037 24.1812 39.8438 24.1812ZM34.1254 31.4935C33.1471 30.7564 34.2671 29.2613 35.2497 29.9939C35.2496 29.9938 38.9996 32.8063 38.9996 32.8063C39.4942 33.1568 39.4949 33.9555 38.9996 34.306C38.9996 34.306 35.2496 37.1185 35.2496 37.1185C35.0812 37.2448 34.8843 37.3062 34.6884 37.3062C33.8247 37.3383 33.3993 36.1229 34.1254 35.6188C34.1254 35.6188 36.8747 33.5562 36.8747 33.5562L34.1254 31.4935ZM32.7457 29.2165L28.9957 38.5916C28.515 39.7299 26.8164 39.0446 27.2544 37.8957C27.2543 37.8957 31.0043 28.5207 31.0043 28.5207C31.4806 27.3861 33.1842 28.0633 32.7457 29.2165ZM25.8746 35.6188C26.8539 36.3572 25.7309 37.8513 24.7503 37.1184C24.7504 37.1185 21.0004 34.306 21.0004 34.306C20.5058 33.9556 20.5051 33.1567 21.0004 32.8063C21.0004 32.8063 24.7504 29.9938 24.7504 29.9938C25.7315 29.2629 26.8545 30.7534 25.8746 31.4935C25.8746 31.4935 23.1253 33.5561 23.1253 33.5561L25.8746 35.6188Z" fill="#196164"/>
<path d="M43.8958 50.9749L41.9073 48.9855L43.6175 47.2753C45.1421 45.8505 44.4157 43.0726 42.3869 42.5787C42.387 42.5786 30.5062 39.2516 30.5062 39.2516C29.155 38.8295 27.7708 40.2084 28.1955 41.5625C28.1954 41.5624 31.5225 53.4432 31.5225 53.4432C32.0172 55.4704 34.7937 56.2 36.2191 54.6736C36.2191 54.6737 37.9293 52.9635 37.9293 52.9635L39.9188 54.952C40.2841 55.3173 40.7647 55.5004 41.2444 55.5004C42.2561 55.6076 43.2352 54.2192 43.8958 53.6263C44.6273 52.8957 44.6273 51.7055 43.8958 50.9749Z" fill="#C4F500"/>
</svg>
