<svg width="60" height="60" viewBox="0 0 60 60" fill="none" xmlns="http://www.w3.org/2000/svg">
<path d="M49.4211 40.3125C46.6106 40.1472 44.3899 38.9111 43.4564 36.5625H27.1875C24.0857 36.5625 21.5625 34.0393 21.5625 30.9375V13.125C21.5625 10.0232 24.0857 7.5 27.1875 7.5H52.5C55.6018 7.5 58.125 10.0232 58.125 13.125V30.9375C58.125 34.0393 55.6018 36.5625 52.5 36.5625H49.368C49.2508 37.3636 49.5007 38.1464 50.0739 38.7021C50.6803 39.2514 50.2371 40.3405 49.4211 40.3125ZM27.1875 9.375C25.1193 9.375 23.4375 11.0568 23.4375 13.125V30.9375C23.4375 33.0057 25.1193 34.6875 27.1875 34.6875H44.1559C44.5981 34.6875 44.9808 34.997 45.0723 35.4291C45.3567 36.7291 46.3094 37.5859 47.6038 38.0676C47.3762 37.1674 47.2734 34.7716 48.6492 34.6875C48.6493 34.6875 52.5 34.6875 52.5 34.6875C54.5682 34.6875 56.25 33.0057 56.25 30.9375V13.125C56.25 11.0568 54.5682 9.375 52.5 9.375H27.1875Z" fill="#196164"/>
<path d="M49.6875 15H44.0625C41.9914 15 40.3125 16.6789 40.3125 18.75V24.375C40.3125 26.4461 41.9914 28.125 44.0625 28.125H49.6875C51.7586 28.125 53.4375 26.4461 53.4375 24.375V18.75C53.4375 16.6789 51.7586 15 49.6875 15Z" fill="#196164"/>
<path d="M32.8125 19.6875H7.5C4.3982 19.6875 1.875 22.2107 1.875 25.3125V43.125C1.875 46.2268 4.3982 48.75 7.5 48.75H10.632C10.7492 49.5511 10.4993 50.3339 9.92615 50.8896C9.64508 51.1624 9.56268 51.5808 9.72015 51.9397C9.87681 52.2979 10.2446 52.5221 10.6329 52.4982C13.4337 52.3112 15.6106 51.0852 16.5436 48.75H32.8125C35.9143 48.75 38.4375 46.2268 38.4375 43.125V25.3125C38.4375 22.2107 35.9143 19.6875 32.8125 19.6875ZM13.125 40.3125C9.50683 40.3125 6.5625 37.3682 6.5625 33.75C6.89295 25.056 19.3584 25.0584 19.6875 33.7501C19.6875 37.3682 16.7432 40.3125 13.125 40.3125Z" fill="#196164"/>
<path d="M33.7502 28.125H21.5627C21.0446 28.125 20.6252 27.7057 20.6252 27.1875C20.6252 26.6693 21.0446 26.25 21.5627 26.25H31.4871L30.2749 25.0379C29.4123 24.1683 30.7296 22.8483 31.6006 23.7122C31.6006 23.7122 34.4131 26.5247 34.4131 26.5247C35.0049 27.0778 34.5609 28.1527 33.7502 28.125Z" fill="#C4F500"/>
<path d="M24.3752 34.6875C24.1354 34.6875 23.8955 34.596 23.7124 34.4129L20.8999 31.6004C20.3086 31.047 20.7517 29.9725 21.5628 30C21.5627 30 33.7502 30 33.7502 30C34.9784 30.0193 34.9861 31.8542 33.7502 31.875H23.8259L25.0381 33.0872C25.636 33.6441 25.177 34.7159 24.3752 34.6875Z" fill="#C4F500"/>
</svg>
