<svg width="60" height="60" viewBox="0 0 60 60" fill="none" xmlns="http://www.w3.org/2000/svg">
<path d="M26.25 38.2437C26.25 35.3959 28.5585 33.0874 31.4062 33.0874H43.5938C50.416 33.3217 50.4206 43.1642 43.5937 43.3999H31.4062C28.5585 43.3999 26.25 41.0914 26.25 38.2437Z" fill="#196164"/>
<path d="M43.5939 44.3374H31.4064C23.3366 44.0325 23.3325 32.4562 31.4064 32.1499C31.4064 32.1499 43.5939 32.1499 43.5939 32.1499C51.6636 32.4548 51.6677 44.0311 43.5939 44.3374ZM31.4064 34.0249C25.8344 34.2005 25.8293 42.2853 31.4065 42.4624C31.4064 42.4624 43.5939 42.4624 43.5939 42.4624C49.1658 42.2868 49.1709 34.202 43.5938 34.0249H31.4064Z" fill="#196164"/>
<path d="M51.5625 11.5249C51.5864 10.2934 53.4138 10.2935 53.4375 11.5249C53.4136 12.7564 51.5862 12.7562 51.5625 11.5249ZM47.8125 11.5249C47.8364 10.2934 49.6638 10.2935 49.6875 11.5249C49.6636 12.7564 47.8362 12.7562 47.8125 11.5249ZM44.0625 11.5249C44.0864 10.2934 45.9138 10.2935 45.9375 11.5249C45.9136 12.7564 44.0862 12.7562 44.0625 11.5249Z" fill="#196164"/>
<path d="M25.3124 15.2749H21.5624C17.8548 15.3717 17.8536 20.803 21.5625 20.8999H25.3124C29.0199 20.8031 29.0212 15.3718 25.3124 15.2749Z" fill="#196164"/>
<path d="M36.5624 15.2749H32.8124C29.1048 15.3717 29.1036 20.803 32.8125 20.8999H36.5624C40.2699 20.8031 40.2712 15.3718 36.5624 15.2749Z" fill="#196164"/>
<path d="M50.6248 15.2749H44.0623C40.3556 15.3714 40.3528 20.8029 44.0624 20.8999H50.6248C54.3316 20.8034 54.3343 15.3719 50.6248 15.2749Z" fill="#196164"/>
<path d="M34.6876 24.6499H19.6876C18.4599 24.631 18.4515 22.7956 19.6876 22.7749H34.6876C35.9153 22.7938 35.9237 24.6292 34.6876 24.6499Z" fill="#196164"/>
<path d="M52.5 24.6499H38.4375C37.9193 24.6499 37.5 24.2306 37.5 23.7124C37.5 23.1942 37.9193 22.7749 38.4375 22.7749H52.5C53.728 22.7939 53.7358 24.6292 52.5 24.6499Z" fill="#196164"/>
<path d="M34.6876 28.3999H19.6876C18.4599 28.381 18.4515 26.5456 19.6876 26.5249H34.6876C35.9153 26.5438 35.9237 28.3792 34.6876 28.3999Z" fill="#196164"/>
<path d="M52.5 28.3999H38.4375C37.9193 28.3999 37.5 27.9806 37.5 27.4624C37.5 26.9442 37.9193 26.5249 38.4375 26.5249H52.5C53.728 26.5439 53.7358 28.3792 52.5 28.3999Z" fill="#196164"/>
<path d="M25.3123 32.1499H19.6873C18.4566 32.13 18.4537 30.2953 19.6873 30.2749H25.3123C26.543 30.2948 26.5459 32.1295 25.3123 32.1499Z" fill="#196164"/>
<path d="M52.5 6.8374H7.5C4.3982 6.8374 1.875 9.3606 1.875 12.4624V42.4624C1.875 45.5642 4.3982 48.0874 7.5 48.0874H52.5C55.6018 48.0874 58.125 45.5642 58.125 42.4624V12.4624C58.125 9.3606 55.6018 6.8374 52.5 6.8374ZM13.125 34.9624H8.4375C7.20648 34.9425 7.20412 33.1078 8.43754 33.0874C8.4375 33.0874 13.125 33.0874 13.125 33.0874C14.356 33.1074 14.3584 34.942 13.125 34.9624ZM13.125 31.2124H5.625C4.39485 31.1927 4.3909 29.3578 5.62504 29.3374C5.625 29.3374 13.125 29.3374 13.125 29.3374C14.3552 29.3571 14.3591 31.192 13.125 31.2124ZM13.125 27.4624H5.625C4.39485 27.4427 4.3909 25.6078 5.62504 25.5874C5.625 25.5874 13.125 25.5874 13.125 25.5874C14.3552 25.6071 14.3591 27.442 13.125 27.4624ZM9.375 23.7124C6.79046 23.7124 4.6875 21.6094 4.6875 19.0249C4.90781 12.821 13.8431 12.8226 14.0625 19.025C14.0625 21.6094 11.9595 23.7124 9.375 23.7124ZM56.25 42.4624C56.25 44.5306 54.5682 46.2124 52.5 46.2124H17.8125V8.7124H52.5C54.5682 8.7124 56.25 10.3942 56.25 12.4624V42.4624Z" fill="#196164"/>
<path d="M53.2711 48.6312L51.2826 46.6418L52.9928 44.9316C54.5174 43.5068 53.791 40.7288 51.7623 40.2349C51.7623 40.2349 39.8815 36.9079 39.8815 36.9079C38.531 36.4857 37.1458 37.8647 37.5708 39.2187C37.5707 39.2187 40.8978 51.0995 40.8978 51.0995C41.3924 53.1268 44.1689 53.8556 45.5944 52.3299C45.5944 52.33 47.3046 50.6198 47.3046 50.6198L49.2941 52.6083C49.6594 52.9736 50.14 53.1567 50.6197 53.1567C51.6314 53.2639 52.6105 51.8755 53.2711 51.2826C54.0026 50.552 54.0026 49.3618 53.2711 48.6312Z" fill="#C4F500"/>
</svg>
